{"title":"The.Last.Witch.Hunter.2015.WEBRip.480p.x264.AAC-VYTO [P2PDL]","uid":13205578,"size":405282716,"categoryP":"video","categoryS":"movies","magnet":"?xt=urn:btih:d85939fe0dea9531bd224a64fb2e73160f7ebf22&amp;dn=The.Last.Witch.Hunter.2015.WEBRip.480p.x264.AAC-VYTO+%5BP2PDL%5D&amp;tr=udp%3A%2F%2Ftracker.leechers-paradise.org%3A6969&amp;tr=udp%3A%2F%2Fzer0day.ch%3A1337&amp;tr=udp%3A%2F%2Fopen.demonii.com%3A1337&amp;tr=udp%3A%2F%2Ftracker.coppersurfer.tk%3A6969&amp;tr=udp%3A%2F%2Fexodus.desync.com%3A6969","seeders":3,"leechers":4,"uploader":"VYTOP2PDL","files":7,"time":1452589505,"description":"The.Last.Witch.Hunter.2015.WEBRip.480p.x264.AAC-VYTO\r\n\r\n\r\nGenre: Action, Adventure, Fantasy \nhttp://www.imdb.com/title/tt1618442/\r\n\r\n\r\nFormat                                   : MPEG-4\r\nFile size                                : 377 MiB\r\nDuration                                 : 1h 46mn\r\nOverall bit rate                         : 495 Kbps\r\n\r\nVideo\r\nFormat                                   : AVC\r\nBit rate                                 : 460 Kbps\r\nWidth                                    : 720 pixels\r\nHeight                                   : 400 pixels\r\nDisplay aspect ratio                     : 16:9\r\nFrame rate mode                          : Constant\r\nFrame rate                               : 24.000 fps\r\nBit depth                                : 8 bits\r\nStream size                              : 350 MiB (93%)\r\nWriting library                          : x264 \r\n\r\nAudio\r\nFormat                                   : AAC\r\nBit rate mode                            : Variable\r\nBit rate                                 : 32.0 Kbps\r\nChannel(s)                               : 2 channels\r\nChannel positions                        : Front: L R \r\nSampling rate                            : 48.0 KHz\r\nStream size                              : 24.4 MiB (6%)\r\nLanguage                                 : English\r\n\r\nSubtitle                                 : Yes (English)\r\n\r\nScreen Shots: (Click to view)\r\n \nhttp://ititli.com/bZ \nhttp://ititli.com/bc \nhttp://ititli.com/bi \nhttp://ititli.com/bp \nhttp://ititli.com/bD \nhttp://ititli.com/ba \nhttp://ititli.com/bb \nhttp://ititli.com/bz \nhttp://ititli.com/bI\r\n\r\n----------------------------------------------------------------------------------------------------\r\n\r\n\r\nEncoder Notes: Looking For Early Access To Anything You Can Provide WEBDL, DVDScr, DVDR, BluRay,\r\nDirect Audio, Music Releases and Seedboxes. If You Got anything to offer please contact us.\r\n\r\nSupport us by donating BC - 1FgwdzPsd1y25Gea8wP1qni35uGCtmkRCD\r\n\r\n\r\nSend some love!\r\nFind us and join us!\r\n\r\nTry all new image sharing/hosting service at:             \nhttp://ititli.com/","torrent":{"xt":"urn:btih:d85939fe0dea9531bd224a64fb2e73160f7ebf22","amp;dn":"The.Last.Witch.Hunter.2015.WEBRip.480p.x264.AAC-VYTO+%5BP2PDL%5D","amp;tr":["udp%3A%2F%2Ftracker.leechers-paradise.org%3A6969","udp%3A%2F%2Fzer0day.ch%3A1337","udp%3A%2F%2Fopen.demonii.com%3A1337","udp%3A%2F%2Ftracker.coppersurfer.tk%3A6969","udp%3A%2F%2Fexodus.desync.com%3A6969"],"infoHash":"d85939fe0dea9531bd224a64fb2e73160f7ebf22","infoHashBuffer":{"type":"Buffer","data":[216,89,57,254,13,234,149,49,189,34,74,100,251,46,115,22,15,126,191,34]},"announce":[],"urlList":[]}}